# xmcd CD database file
#
# Track frame offsets:
#	150
#	12868
#	18570
#	33647
#	47471
#	63449
#	68562
#	83605
#	101127
#	115132
#	121097
#	134673
#	147494
#	158235
#	170273
#	185227
#	199793
#	216865
#	228332
#	241884
#	256683
#	269590
#	283835
#
# Disc length: 4014 seconds
#
# Revision: 1
# Processed by: cddbd v1.5.2PL0 Copyright (c) Steve Scherf et al.
# Submitted via: CDex 1.70beta2
#
DISCID=4e0fac17
DTITLE=Lilian Jackson Braun - The Cat Who Tailed a Thief
DYEAR=1997
DGENRE=Audiobook
TTITLE0=301
TTITLE1=302
TTITLE2=303
TTITLE3=304
TTITLE4=305
TTITLE5=306
TTITLE6=307
TTITLE7=308
TTITLE8=309
TTITLE9=310
TTITLE10=311
TTITLE11=312
TTITLE12=313
TTITLE13=314
TTITLE14=315
TTITLE15=316
TTITLE16=317
TTITLE17=318
TTITLE18=319
TTITLE19=320
TTITLE20=321
TTITLE21=322
TTITLE22=323
EXTD=The Cat Who Tailed a Thief 1997\nby Lilian Jackson Braun - \nread by George Guidall -  6 CDs YEAR: 1997
EXTT0=
EXTT1=
EXTT2=
EXTT3=
EXTT4=
EXTT5=
EXTT6=
EXTT7=
EXTT8=
EXTT9=
EXTT10=
EXTT11=
EXTT12=
EXTT13=
EXTT14=
EXTT15=
EXTT16=
EXTT17=
EXTT18=
EXTT19=
EXTT20=
EXTT21=
EXTT22=
PLAYORDER=
